<mxfile host="app.diagrams.net" modified="2024-07-01T09:36:54.237Z" agent="Mozilla/5.0 (Windows NT 10.0; Win64; x64) AppleWebKit/537.36 (KHTML, like Gecko) Chrome/126.0.0.0 Safari/537.36" etag="3HmanOc8l-yIv1Pqeq44" version="24.6.4" type="device">
  <diagram name="Seite-1" id="sVGZ9vlG3PWK336P-v1g">
    <mxGraphModel dx="1167" dy="628" grid="1" gridSize="10" guides="1" tooltips="1" connect="1" arrows="1" fold="1" page="1" pageScale="1" pageWidth="827" pageHeight="1169" math="0" shadow="0">
      <root>
        <mxCell id="0" />
        <mxCell id="1" parent="0" />
        <mxCell id="70zlPIyfADzyXV2_gpce-68" value="" style="rounded=0;whiteSpace=wrap;html=1;fillColor=none;" vertex="1" parent="1">
          <mxGeometry x="130" width="580" height="410" as="geometry" />
        </mxCell>
        <mxCell id="70zlPIyfADzyXV2_gpce-49" value="" style="endArrow=open;html=1;rounded=0;exitX=0.5;exitY=0.5;exitDx=0;exitDy=0;exitPerimeter=0;entryX=0;entryY=0.5;entryDx=0;entryDy=0;endFill=0;" edge="1" parent="1" source="70zlPIyfADzyXV2_gpce-1" target="70zlPIyfADzyXV2_gpce-14">
          <mxGeometry width="50" height="50" relative="1" as="geometry">
            <mxPoint x="390" y="270" as="sourcePoint" />
            <mxPoint x="440" y="220" as="targetPoint" />
          </mxGeometry>
        </mxCell>
        <mxCell id="70zlPIyfADzyXV2_gpce-47" value="" style="endArrow=open;html=1;rounded=0;exitX=0.5;exitY=0.5;exitDx=0;exitDy=0;exitPerimeter=0;entryX=0;entryY=0.5;entryDx=0;entryDy=0;endFill=0;" edge="1" parent="1" source="70zlPIyfADzyXV2_gpce-23" target="70zlPIyfADzyXV2_gpce-13">
          <mxGeometry width="50" height="50" relative="1" as="geometry">
            <mxPoint x="390" y="270" as="sourcePoint" />
            <mxPoint x="440" y="220" as="targetPoint" />
          </mxGeometry>
        </mxCell>
        <mxCell id="70zlPIyfADzyXV2_gpce-1" value="HR" style="shape=umlActor;verticalLabelPosition=bottom;verticalAlign=top;html=1;outlineConnect=0;fillColor=none;" vertex="1" parent="1">
          <mxGeometry x="3.5" y="60" width="30" height="60" as="geometry" />
        </mxCell>
        <mxCell id="70zlPIyfADzyXV2_gpce-2" value="Textdatei&amp;nbsp;&lt;div&gt;einlesen&lt;/div&gt;" style="ellipse;whiteSpace=wrap;html=1;" vertex="1" parent="1">
          <mxGeometry x="360" y="170" width="140" height="70" as="geometry" />
        </mxCell>
        <mxCell id="70zlPIyfADzyXV2_gpce-3" value="" style="sketch=0;pointerEvents=1;shadow=0;dashed=0;html=1;strokeColor=none;fillColor=#505050;labelPosition=center;verticalLabelPosition=bottom;verticalAlign=top;outlineConnect=0;align=center;shape=mxgraph.office.devices.headset;" vertex="1" parent="1">
          <mxGeometry x="7" y="60" width="23" height="18" as="geometry" />
        </mxCell>
        <mxCell id="70zlPIyfADzyXV2_gpce-5" value="Mitarbeiter&amp;nbsp;&lt;div&gt;hinzufuegen&lt;/div&gt;" style="ellipse;whiteSpace=wrap;html=1;" vertex="1" parent="1">
          <mxGeometry x="160" y="8" width="140" height="70" as="geometry" />
        </mxCell>
        <mxCell id="70zlPIyfADzyXV2_gpce-6" value="Mitarbeiter&amp;nbsp;&lt;div&gt;entfernen&lt;/div&gt;" style="ellipse;whiteSpace=wrap;html=1;" vertex="1" parent="1">
          <mxGeometry x="160" y="90" width="140" height="70" as="geometry" />
        </mxCell>
        <mxCell id="70zlPIyfADzyXV2_gpce-7" value="Gehaelter&lt;div&gt;abrechnen&lt;/div&gt;" style="ellipse;whiteSpace=wrap;html=1;" vertex="1" parent="1">
          <mxGeometry x="160" y="330" width="140" height="70" as="geometry" />
        </mxCell>
        <mxCell id="70zlPIyfADzyXV2_gpce-8" value="Gehalt&lt;div&gt;erhoehen&lt;/div&gt;" style="ellipse;whiteSpace=wrap;html=1;" vertex="1" parent="1">
          <mxGeometry x="160" y="170" width="140" height="70" as="geometry" />
        </mxCell>
        <mxCell id="70zlPIyfADzyXV2_gpce-12" value="Praemie&amp;nbsp;&lt;div&gt;auszahlen&lt;/div&gt;" style="ellipse;whiteSpace=wrap;html=1;" vertex="1" parent="1">
          <mxGeometry x="160" y="248" width="140" height="70" as="geometry" />
        </mxCell>
        <mxCell id="70zlPIyfADzyXV2_gpce-13" value="Programm&amp;nbsp;&lt;div&gt;starten&lt;/div&gt;" style="ellipse;whiteSpace=wrap;html=1;" vertex="1" parent="1">
          <mxGeometry x="540" y="40" width="140" height="70" as="geometry" />
        </mxCell>
        <mxCell id="70zlPIyfADzyXV2_gpce-14" value="Programm&amp;nbsp;&lt;div&gt;beenden&lt;/div&gt;" style="ellipse;whiteSpace=wrap;html=1;" vertex="1" parent="1">
          <mxGeometry x="540" y="290" width="140" height="70" as="geometry" />
        </mxCell>
        <mxCell id="70zlPIyfADzyXV2_gpce-17" value="IT" style="shape=umlActor;verticalLabelPosition=bottom;verticalAlign=top;html=1;outlineConnect=0;fillColor=none;" vertex="1" parent="1">
          <mxGeometry x="797" y="180" width="30" height="60" as="geometry" />
        </mxCell>
        <mxCell id="70zlPIyfADzyXV2_gpce-18" value="" style="sketch=0;pointerEvents=1;shadow=0;dashed=0;html=1;strokeColor=none;fillColor=#505050;labelPosition=center;verticalLabelPosition=bottom;verticalAlign=top;outlineConnect=0;align=center;shape=mxgraph.office.devices.headset;" vertex="1" parent="1">
          <mxGeometry x="800.5" y="180" width="23" height="18" as="geometry" />
        </mxCell>
        <mxCell id="70zlPIyfADzyXV2_gpce-23" value="Acc" style="shape=umlActor;verticalLabelPosition=bottom;verticalAlign=top;html=1;outlineConnect=0;fillColor=none;" vertex="1" parent="1">
          <mxGeometry y="300" width="30" height="60" as="geometry" />
        </mxCell>
        <mxCell id="70zlPIyfADzyXV2_gpce-24" value="" style="sketch=0;pointerEvents=1;shadow=0;dashed=0;html=1;strokeColor=none;fillColor=#505050;labelPosition=center;verticalLabelPosition=bottom;verticalAlign=top;outlineConnect=0;align=center;shape=mxgraph.office.devices.headset;" vertex="1" parent="1">
          <mxGeometry x="3.5" y="300" width="23" height="18" as="geometry" />
        </mxCell>
        <mxCell id="70zlPIyfADzyXV2_gpce-30" value="Programm&lt;div&gt;warten&lt;/div&gt;" style="ellipse;whiteSpace=wrap;html=1;" vertex="1" parent="1">
          <mxGeometry x="540" y="170" width="140" height="70" as="geometry" />
        </mxCell>
        <mxCell id="70zlPIyfADzyXV2_gpce-36" value="" style="endArrow=open;html=1;rounded=0;exitX=0.5;exitY=0.5;exitDx=0;exitDy=0;exitPerimeter=0;entryX=0;entryY=0.5;entryDx=0;entryDy=0;endFill=0;" edge="1" parent="1" source="70zlPIyfADzyXV2_gpce-23" target="70zlPIyfADzyXV2_gpce-7">
          <mxGeometry width="50" height="50" relative="1" as="geometry">
            <mxPoint x="390" y="270" as="sourcePoint" />
            <mxPoint x="440" y="220" as="targetPoint" />
          </mxGeometry>
        </mxCell>
        <mxCell id="70zlPIyfADzyXV2_gpce-37" value="" style="endArrow=open;html=1;rounded=0;exitX=0.5;exitY=0.5;exitDx=0;exitDy=0;exitPerimeter=0;entryX=0;entryY=0.5;entryDx=0;entryDy=0;endFill=0;" edge="1" parent="1" source="70zlPIyfADzyXV2_gpce-1" target="70zlPIyfADzyXV2_gpce-12">
          <mxGeometry width="50" height="50" relative="1" as="geometry">
            <mxPoint x="390" y="270" as="sourcePoint" />
            <mxPoint x="440" y="220" as="targetPoint" />
          </mxGeometry>
        </mxCell>
        <mxCell id="70zlPIyfADzyXV2_gpce-38" value="" style="endArrow=open;html=1;rounded=0;exitX=0.5;exitY=0.5;exitDx=0;exitDy=0;exitPerimeter=0;entryX=0;entryY=0.5;entryDx=0;entryDy=0;endFill=0;" edge="1" parent="1" source="70zlPIyfADzyXV2_gpce-1" target="70zlPIyfADzyXV2_gpce-8">
          <mxGeometry width="50" height="50" relative="1" as="geometry">
            <mxPoint x="390" y="270" as="sourcePoint" />
            <mxPoint x="440" y="220" as="targetPoint" />
          </mxGeometry>
        </mxCell>
        <mxCell id="70zlPIyfADzyXV2_gpce-41" value="" style="endArrow=open;html=1;rounded=0;exitX=0.5;exitY=0.5;exitDx=0;exitDy=0;exitPerimeter=0;entryX=0;entryY=0.5;entryDx=0;entryDy=0;endFill=0;" edge="1" parent="1" source="70zlPIyfADzyXV2_gpce-23" target="70zlPIyfADzyXV2_gpce-12">
          <mxGeometry width="50" height="50" relative="1" as="geometry">
            <mxPoint x="390" y="270" as="sourcePoint" />
            <mxPoint x="440" y="220" as="targetPoint" />
          </mxGeometry>
        </mxCell>
        <mxCell id="70zlPIyfADzyXV2_gpce-46" value="" style="endArrow=open;html=1;rounded=0;exitX=0.5;exitY=0.5;exitDx=0;exitDy=0;exitPerimeter=0;entryX=0;entryY=0.5;entryDx=0;entryDy=0;endFill=0;" edge="1" parent="1" source="70zlPIyfADzyXV2_gpce-23" target="70zlPIyfADzyXV2_gpce-14">
          <mxGeometry width="50" height="50" relative="1" as="geometry">
            <mxPoint x="390" y="270" as="sourcePoint" />
            <mxPoint x="440" y="220" as="targetPoint" />
          </mxGeometry>
        </mxCell>
        <mxCell id="70zlPIyfADzyXV2_gpce-52" value="&amp;lt;&amp;lt;include&amp;gt;&amp;gt;" style="html=1;verticalAlign=bottom;labelBackgroundColor=none;endArrow=open;endFill=0;dashed=1;rounded=0;entryX=0;entryY=1;entryDx=0;entryDy=0;exitX=1;exitY=0;exitDx=0;exitDy=0;" edge="1" parent="1" source="70zlPIyfADzyXV2_gpce-2" target="70zlPIyfADzyXV2_gpce-13">
          <mxGeometry x="-0.4961" y="14" width="160" relative="1" as="geometry">
            <mxPoint x="330" y="240" as="sourcePoint" />
            <mxPoint x="490" y="240" as="targetPoint" />
            <mxPoint as="offset" />
          </mxGeometry>
        </mxCell>
        <mxCell id="70zlPIyfADzyXV2_gpce-53" value="" style="endArrow=open;html=1;rounded=0;exitX=0.5;exitY=0.5;exitDx=0;exitDy=0;exitPerimeter=0;entryX=0;entryY=0.5;entryDx=0;entryDy=0;endFill=0;" edge="1" parent="1" source="70zlPIyfADzyXV2_gpce-1" target="70zlPIyfADzyXV2_gpce-5">
          <mxGeometry width="50" height="50" relative="1" as="geometry">
            <mxPoint x="29" y="100" as="sourcePoint" />
            <mxPoint x="550" y="335" as="targetPoint" />
          </mxGeometry>
        </mxCell>
        <mxCell id="70zlPIyfADzyXV2_gpce-54" value="" style="endArrow=open;html=1;rounded=0;exitX=0.5;exitY=0.5;exitDx=0;exitDy=0;exitPerimeter=0;entryX=0;entryY=0.5;entryDx=0;entryDy=0;endFill=0;" edge="1" parent="1" source="70zlPIyfADzyXV2_gpce-1" target="70zlPIyfADzyXV2_gpce-6">
          <mxGeometry width="50" height="50" relative="1" as="geometry">
            <mxPoint x="39" y="110" as="sourcePoint" />
            <mxPoint x="560" y="345" as="targetPoint" />
          </mxGeometry>
        </mxCell>
        <mxCell id="70zlPIyfADzyXV2_gpce-55" value="" style="endArrow=open;html=1;rounded=0;exitX=0.5;exitY=0.5;exitDx=0;exitDy=0;exitPerimeter=0;entryX=1;entryY=0.5;entryDx=0;entryDy=0;endFill=0;" edge="1" parent="1" source="70zlPIyfADzyXV2_gpce-17" target="70zlPIyfADzyXV2_gpce-30">
          <mxGeometry width="50" height="50" relative="1" as="geometry">
            <mxPoint x="49" y="120" as="sourcePoint" />
            <mxPoint x="570" y="355" as="targetPoint" />
          </mxGeometry>
        </mxCell>
        <mxCell id="70zlPIyfADzyXV2_gpce-56" value="" style="endArrow=open;html=1;rounded=0;exitX=0.5;exitY=0.5;exitDx=0;exitDy=0;exitPerimeter=0;entryX=1;entryY=0.5;entryDx=0;entryDy=0;endFill=0;" edge="1" parent="1" source="70zlPIyfADzyXV2_gpce-17" target="70zlPIyfADzyXV2_gpce-14">
          <mxGeometry width="50" height="50" relative="1" as="geometry">
            <mxPoint x="59" y="130" as="sourcePoint" />
            <mxPoint x="580" y="365" as="targetPoint" />
          </mxGeometry>
        </mxCell>
        <mxCell id="70zlPIyfADzyXV2_gpce-57" value="" style="endArrow=open;html=1;rounded=0;exitX=0.5;exitY=0.5;exitDx=0;exitDy=0;exitPerimeter=0;entryX=1;entryY=0.5;entryDx=0;entryDy=0;endFill=0;" edge="1" parent="1" source="70zlPIyfADzyXV2_gpce-17" target="70zlPIyfADzyXV2_gpce-13">
          <mxGeometry width="50" height="50" relative="1" as="geometry">
            <mxPoint x="69" y="140" as="sourcePoint" />
            <mxPoint x="590" y="375" as="targetPoint" />
          </mxGeometry>
        </mxCell>
      </root>
    </mxGraphModel>
  </diagram>
</mxfile>
